<svg xmlns="http://www.w3.org/2000/svg" width="170" height="131" viewBox="0 0 170 131" fill="none">
  <g clip-path="url(#clip0_97_525)">
    <path d="M84.0404 130.372C83.465 130.372 82.9278 130.181 82.4287 129.846L77.3251 126.066C76.5574 125.539 76.9413 125.348 77.1717 125.252C78.2076 124.822 78.3995 124.726 79.474 123.961C79.5892 123.865 79.7429 123.913 79.8578 124.008L83.7721 126.927C83.9255 127.023 84.1175 127.023 84.2323 126.927L99.544 115.874C99.6974 115.778 99.7744 115.586 99.7744 115.348V93.289C99.7744 93.0493 99.6974 92.8584 99.544 92.7624L84.2323 81.7571C84.0789 81.661 83.887 81.661 83.7721 81.7571L68.4605 92.7624C68.3071 92.858 68.2301 93.0973 68.2301 93.2886V115.347C68.2301 115.539 68.3071 115.778 68.4605 115.874L72.6434 118.888C74.9076 120.324 76.3273 118.649 76.3273 116.974V95.2025C76.3273 94.9156 76.5192 94.6283 76.7879 94.6283H78.7449C78.9753 94.6283 79.2054 94.8676 79.2054 95.2025V116.974C79.2054 120.754 77.5552 122.955 74.6771 122.955C73.7946 122.955 73.104 122.955 71.1466 121.759L67.1174 118.888C66.1197 118.171 65.5058 116.831 65.5058 115.395V93.3366C65.5058 91.9012 66.1197 90.561 67.1174 89.8436L82.4287 78.7902C83.3883 78.1204 84.6932 78.1204 85.6524 78.7902L100.964 89.8436C101.961 90.561 102.576 91.9012 102.576 93.3366V115.395C102.576 116.831 101.961 118.171 100.964 118.888L85.6524 129.942C85.1534 130.229 84.5776 130.372 84.0404 130.372ZM88.7606 115.204C82.0452 115.204 80.6637 111.376 80.6637 108.122C80.6637 107.835 80.8556 107.548 81.1242 107.548H83.1197C83.3498 107.548 83.5417 107.739 83.5417 108.027C83.8488 110.562 84.7314 111.807 88.7991 111.807C92.0224 111.807 93.4044 110.897 93.4044 108.744C93.4044 107.5 93.0202 106.591 87.9933 105.969C83.8103 105.442 81.2009 104.294 81.2009 100.131C81.2009 96.2554 83.8106 93.9584 88.1852 93.9584C93.0969 93.9584 95.5148 96.0641 95.8219 100.657C95.8219 100.801 95.7834 100.944 95.7067 101.088C95.6296 101.184 95.5148 101.279 95.3995 101.279H93.404C93.2121 101.279 93.0202 101.088 92.982 100.849C92.5215 98.2174 91.3318 97.3558 88.1852 97.3558C84.6547 97.3558 84.2323 98.8873 84.2323 100.035C84.2323 101.423 84.7314 101.854 89.4897 102.619C94.2099 103.385 96.4358 104.486 96.4358 108.6C96.3973 112.811 93.6345 115.204 88.7606 115.204Z" fill="#539E43"/>
    <path d="M36.5327 44.099C36.5327 43.2379 36.1489 42.4239 35.535 41.9934L19.2641 30.3182C18.9952 30.1265 18.6884 30.0309 18.3816 29.9829H18.2278C17.921 29.9829 17.6139 30.1265 17.3453 30.3182L1.07444 41.9934C0.460187 42.4239 0.0766907 43.2375 0.0766907 44.099L0.115206 75.4882C0.115206 75.9188 0.30712 76.3494 0.613917 76.5411C0.921046 76.7804 1.30454 76.7804 1.57349 76.5411L11.2439 69.6507C11.8578 69.2201 12.2417 68.4065 12.2417 67.5454V52.8554C12.2417 51.9943 12.6251 51.1807 13.2394 50.7501L17.3453 47.7833C17.6524 47.544 17.9977 47.448 18.3431 47.448C18.6884 47.448 19.0337 47.544 19.3026 47.7833L23.4085 50.7501C24.0228 51.1807 24.4063 51.9938 24.4063 52.8554V67.5454C24.4063 68.4065 24.7901 69.2201 25.404 69.6507L35.0744 76.5411C35.2238 76.6584 35.3968 76.7206 35.5733 76.7206C35.7499 76.7206 35.9228 76.6584 36.0722 76.5411C36.3793 76.3494 36.5712 75.9188 36.5712 75.4882L36.5327 44.099ZM114.74 0.890592C114.434 0.698904 114.05 0.698904 113.781 0.890592C113.474 1.12989 113.282 1.51244 113.282 1.94301V33.0457C113.282 33.3326 113.167 33.6195 112.937 33.8112C112.707 33.9545 112.476 33.9545 112.246 33.8112L108.178 30.8924C107.88 30.6807 107.543 30.5694 107.2 30.5694C106.857 30.5694 106.519 30.6807 106.221 30.8924L89.9502 42.6156C89.3363 43.0462 88.9525 43.8597 88.9525 44.7209V68.1192C88.9525 68.9804 89.3363 69.7943 89.9502 70.2249L106.221 81.9481C106.519 82.1598 106.857 82.2711 107.2 82.2711C107.543 82.2711 107.88 82.1598 108.178 81.9481L124.449 70.2249C125.063 69.7943 125.447 68.9808 125.447 68.1192V9.79062C125.447 8.88145 125.063 8.06833 124.449 7.63734L114.74 0.890592ZM113.244 60.4157C113.244 60.655 113.167 60.8463 113.013 60.9419L107.449 64.9611C107.372 65.0084 107.286 65.033 107.2 65.033C107.113 65.033 107.028 65.0084 106.95 64.9611L101.386 60.9419C101.232 60.8463 101.156 60.607 101.156 60.4157V52.3768C101.156 52.1375 101.232 51.9462 101.386 51.8506L106.95 47.8309C107.028 47.7837 107.113 47.7591 107.2 47.7591C107.286 47.7591 107.372 47.7837 107.449 47.8309L113.013 51.8506C113.167 51.9458 113.244 52.1855 113.244 52.3768V60.4157ZM168.887 52.1855C169.501 51.755 169.847 50.9414 169.847 50.0799V44.3859C169.847 43.5248 169.463 42.7113 168.887 42.2807L152.731 30.6055C152.433 30.3938 152.096 30.2825 151.753 30.2825C151.41 30.2825 151.072 30.3938 150.774 30.6055L134.503 42.3283C133.889 42.7589 133.505 43.5724 133.505 44.4336V67.8323C133.505 68.6935 133.889 69.507 134.503 69.9376L150.659 81.4215C151.273 81.852 152.002 81.852 152.578 81.4215L162.363 74.6275C162.67 74.4358 162.862 74.0052 162.862 73.5747C162.862 73.1441 162.67 72.7135 162.363 72.5218L146.016 60.7987C145.709 60.5594 145.517 60.1768 145.517 59.7462V52.4252C145.517 51.9947 145.709 51.5641 146.016 51.3724L151.119 47.7357C151.269 47.6185 151.442 47.5563 151.618 47.5563C151.795 47.5563 151.968 47.6185 152.117 47.7357L157.221 51.3724C157.528 51.6117 157.72 51.9943 157.72 52.4252V58.1672C157.72 58.5978 157.912 59.0283 158.219 59.2196C158.368 59.3369 158.541 59.3991 158.718 59.3991C158.894 59.3991 159.067 59.3369 159.217 59.2196L168.887 52.1855Z" fill="#333333"/>
    <path d="M151.503 51.0847C151.56 51.0379 151.627 51.0129 151.695 51.0129C151.763 51.0129 151.83 51.0379 151.887 51.0847L154.995 53.3336C155.11 53.4297 155.187 53.573 155.187 53.7642V58.2625C155.187 58.4537 155.111 58.5974 154.995 58.693L151.887 60.942C151.83 60.9888 151.763 61.0138 151.695 61.0138C151.627 61.0138 151.56 60.9888 151.503 60.942L148.395 58.693C148.28 58.5974 148.203 58.4537 148.203 58.2625V53.7646C148.203 53.5729 148.279 53.4293 148.395 53.3341L151.503 51.0847Z" fill="#539E43"/>
    <path d="M63.7404 30.7014C63.4422 30.4897 63.105 30.3784 62.7619 30.3784C62.4188 30.3784 62.0815 30.4897 61.7834 30.7014L45.6277 42.3281C45.0135 42.7587 44.6682 43.5722 44.6682 44.4333V67.7365C44.6682 68.5976 45.052 69.4111 45.6277 69.8417L61.7834 81.4693C62.0815 81.6809 62.4188 81.7922 62.7619 81.7922C63.105 81.7922 63.4422 81.6809 63.7404 81.4693L79.8963 69.8417C80.5103 69.4111 80.8559 68.5976 80.8559 67.7365V44.4337C80.8559 43.5726 80.4717 42.7591 79.8963 42.3285L63.7404 30.7014Z" fill="url(#paint0_linear_97_525)"/>
  </g>
  <defs>
    <linearGradient id="paint0_linear_97_525" x1="2512.24" y1="929.451" x2="138.613" y2="3920.58" gradientUnits="userSpaceOnUse">
      <stop stop-color="#41873F"/>
      <stop offset="0.3288" stop-color="#418B3D"/>
      <stop offset="0.6352" stop-color="#419637"/>
      <stop offset="0.9319" stop-color="#3FA92D"/>
      <stop offset="1" stop-color="#3FAE2A"/>
    </linearGradient>
    <clipPath id="clip0_97_525">
      <rect width="170" height="130" fill="white" transform="translate(0 0.74707)"/>
    </clipPath>
  </defs>
</svg>