<svg xmlns="http://www.w3.org/2000/svg" width="150" height="161" viewBox="0 0 150 161" fill="none">
  <g clip-path="url(#clip0_97_474)">
    <path d="M149.419 96.5568C148.519 93.7393 146.163 91.7768 143.116 91.3059C141.68 91.0841 140.034 91.1786 138.087 91.5938C134.694 92.318 132.176 92.5938 130.338 92.6471C137.274 80.535 142.914 66.7229 146.16 53.7211C151.41 32.6974 148.605 23.1199 145.327 18.7877C136.651 7.32107 123.993 1.16107 108.722 0.972581C100.576 0.869551 93.4242 2.53319 89.6935 3.72955C86.2201 3.09561 82.4853 2.74167 78.5666 2.67622C71.2207 2.55501 64.7303 4.21137 59.1844 7.61561C56.1141 6.54167 51.1863 5.02773 45.4957 4.06167C32.1117 1.78894 21.3246 3.55985 13.4344 9.32531C3.88007 16.3059 -0.54903 28.4344 0.27011 45.3738C0.530267 50.752 3.43886 67.1156 8.01855 82.6344C10.6506 91.5544 13.4572 98.9617 16.3605 104.653C20.4779 112.722 24.8836 117.474 29.8295 119.181C32.6016 120.136 37.6383 120.805 42.9357 116.242C43.6072 117.083 44.5031 117.919 45.692 118.695C47.202 119.68 49.0482 120.485 50.8922 120.962C57.5373 122.68 63.7617 122.25 69.0721 119.842C69.1049 120.819 69.1301 121.752 69.1512 122.558C69.1863 123.865 69.2215 125.147 69.2678 126.346C69.5824 134.451 70.1156 140.754 71.6953 145.163C71.782 145.406 71.8986 145.776 72.0217 146.168C72.8098 148.663 74.1275 152.842 77.4803 156.114C80.9519 159.503 85.1514 160.543 88.9975 160.543C90.9264 160.543 92.7668 160.281 94.381 159.923C100.135 158.648 106.67 156.705 111.397 149.742C115.867 143.16 118.039 133.247 118.433 117.627C118.484 117.185 118.53 116.763 118.576 116.362L118.669 115.536L119.722 115.632L119.994 115.651C125.854 115.927 133.02 114.642 137.421 112.527C140.899 110.858 152.043 104.773 149.419 96.5568Z" fill="black"/>
    <path d="M139.398 98.1544C121.972 101.873 120.774 95.7701 120.774 95.7701C139.172 67.5319 146.864 31.6877 140.227 22.915C122.119 -1.01533 90.7746 10.3023 90.2514 10.5956L90.0832 10.6271C86.6402 9.88771 82.7877 9.44771 78.457 9.37437C70.5727 9.24104 64.5914 11.5126 60.0527 15.0726C60.0527 15.0726 4.13672 -8.75411 6.73769 45.0386C7.29082 56.4823 22.5955 131.628 40.8498 108.931C47.5219 100.631 53.9689 93.6132 53.9689 93.6132C57.1705 95.8132 61.0037 96.9356 65.0221 96.5326L65.3344 96.2586C65.2371 97.2889 65.2816 98.2968 65.4592 99.4901C60.7564 104.925 62.1387 105.879 52.7379 107.88C43.2252 109.908 48.8133 113.518 52.4619 114.462C56.8852 115.606 67.118 117.226 74.032 107.215L73.7566 108.357C75.5988 109.884 76.8926 118.286 76.6758 125.904C76.459 133.521 76.3143 138.751 77.7656 142.836C79.2182 146.92 80.6648 156.111 93.0234 153.373C103.349 151.083 108.701 145.152 109.446 135.257C109.973 128.223 111.169 129.263 111.244 122.974L112.204 119.997C113.309 110.462 112.379 107.386 118.741 108.817L120.288 108.957C124.969 109.177 131.098 108.178 134.695 106.449C142.44 102.731 147.034 96.5235 139.397 98.1544H139.398Z" fill="#336791"/>
    <path d="M63.3258 50.1562C61.7555 49.9302 60.3334 50.1393 59.6139 50.7029C59.2096 51.0199 59.0842 51.3872 59.0502 51.6399C58.96 52.3096 59.4135 53.0502 59.6924 53.432C60.4811 54.5132 61.633 55.2562 62.7732 55.4199C62.9385 55.4441 63.1031 55.455 63.2666 55.455C65.168 55.455 66.8971 53.9235 67.0494 52.7932C67.2398 51.3775 65.2529 50.4332 63.3258 50.1562ZM115.348 50.2011C115.198 49.0914 113.289 48.775 111.477 49.0356C109.668 49.2963 107.913 50.1411 108.06 51.2532C108.177 52.1181 109.687 53.5944 111.474 53.5944C111.625 53.5944 111.778 53.5841 111.931 53.5617C113.124 53.3908 113.999 52.6072 114.415 52.1556C115.048 51.4672 115.415 50.6999 115.348 50.2011Z" fill="white"/>
    <path d="M145.196 97.7318C144.532 95.6537 142.393 94.9852 138.84 95.744C128.29 97.9961 124.512 96.4361 123.272 95.4912C131.472 82.57 138.218 66.9506 141.857 52.3779C143.581 45.4749 144.533 39.064 144.611 33.8385C144.697 28.1034 143.753 23.8888 141.805 21.3143C133.952 10.9355 122.427 5.3682 108.476 5.21548C98.8846 5.10396 90.7811 7.64275 89.2102 8.35669C85.9019 7.50578 82.2955 6.98335 78.3691 6.91669C71.1691 6.79608 64.9453 8.57911 59.7926 12.2137C57.5543 11.3518 51.7699 9.2979 44.6959 8.11911C32.4662 6.08275 22.7478 7.62578 15.8127 12.7076C7.53749 18.7718 3.71718 29.6118 4.45722 44.9258C4.70624 50.0779 7.54453 65.9276 12.0234 81.1064C17.9191 101.085 24.3281 112.394 31.0711 114.721C31.8603 114.993 32.7703 115.183 33.774 115.183C36.2338 115.183 39.2496 114.037 42.3873 110.135C46.2144 105.386 50.1733 100.753 54.259 96.2403C56.9098 97.7118 59.8219 98.5337 62.8002 98.6161C62.806 98.6967 62.8137 98.7773 62.8207 98.8573C62.308 99.4896 61.806 100.131 61.3148 100.782C59.2512 103.491 58.8217 104.055 52.1789 105.47C50.2893 105.874 45.2707 106.943 45.1969 110.582C45.1172 114.558 51.1295 116.228 51.8144 116.405C54.2016 117.023 56.5014 117.328 58.6945 117.328C64.0283 117.328 68.7223 115.514 72.4734 112.006C72.358 126.179 72.9293 140.145 74.5746 144.4C75.9223 147.884 79.2141 156.397 89.6121 156.397C91.1379 156.397 92.8172 156.213 94.6646 155.803C105.517 153.397 110.229 148.436 112.052 137.499C113.028 131.653 114.702 117.695 115.489 110.208C117.151 110.744 119.29 110.989 121.603 110.989C126.427 110.989 131.992 109.929 135.483 108.253C139.404 106.369 146.48 101.748 145.196 97.7318ZM119.353 47.1379C119.317 49.3482 119.023 51.3549 118.712 53.4494C118.376 55.7021 118.029 58.0312 117.942 60.8585C117.855 63.61 118.188 66.4706 118.509 69.2373C119.158 74.8252 119.824 80.5779 117.245 86.2543C116.817 85.4692 116.436 84.6578 116.103 83.8246C115.782 83.0209 115.086 81.73 114.122 79.9434C110.373 72.9882 101.593 56.7009 106.087 50.0549C107.426 48.0767 110.824 46.0427 119.353 47.1379ZM109.015 9.69123C121.515 9.97669 131.404 14.8137 138.404 24.067C143.774 31.1646 137.861 63.4597 120.744 91.3209C120.572 91.0945 120.399 90.8689 120.225 90.644L120.008 90.364C124.431 82.8082 123.567 75.3324 122.797 68.7046C122.48 65.9846 122.181 63.4155 122.258 61.0021C122.336 58.4446 122.663 56.2506 122.979 54.1294C123.368 51.5155 123.763 48.8106 123.654 45.6221C123.736 45.2876 123.769 44.8924 123.726 44.4234C123.448 41.3658 120.073 32.2149 113.194 23.9324C109.431 19.4021 103.944 14.3324 96.4512 10.9131C99.6738 10.2221 104.081 9.5779 109.015 9.69123ZM39.0668 107.279C35.6098 111.579 33.2227 110.754 32.4375 110.484C27.3223 108.719 21.3867 97.5361 16.1537 79.8027C11.6256 64.4585 8.97949 49.0288 8.76972 44.7021C8.10878 31.0185 11.3156 21.4821 18.3018 16.3573C29.6713 8.0179 48.3639 13.0094 55.875 15.5409C55.7672 15.6512 55.6547 15.7543 55.548 15.8664C43.2223 28.7415 43.5146 50.7391 43.5451 52.084C43.5439 52.6027 43.5861 53.3373 43.6436 54.3476C43.8557 58.0476 44.2506 64.9337 43.1959 72.7318C42.2162 79.9785 44.376 87.0712 49.1203 92.1918C49.6072 92.7163 50.119 93.2156 50.6537 93.6876C48.542 96.027 43.9523 101.2 39.0668 107.279ZM52.2381 89.1015C48.4143 84.9743 46.6775 79.2337 47.4726 73.35C48.5859 65.1124 48.1752 57.9379 47.9543 54.0834C47.9232 53.544 47.8957 53.0712 47.8799 52.6985C49.6805 51.047 58.0248 46.4227 63.9756 47.833C66.6908 48.4761 68.3455 50.3888 69.0334 53.6785C72.5936 70.7106 69.5045 77.8094 67.0225 83.5143C66.5109 84.6894 66.0275 85.8003 65.615 86.9494L65.2951 87.8379C64.4853 90.084 63.7318 92.1724 63.2648 94.1555C59.1996 94.1433 55.2451 92.347 52.2381 89.1009V89.1015ZM52.8621 112.071C51.675 111.765 50.6074 111.232 49.9811 110.79C50.5043 110.535 51.4353 110.189 53.0502 109.845C60.8648 108.181 62.0719 107.006 64.7074 103.545C65.3115 102.751 65.9965 101.852 66.9451 100.756L66.9463 100.755C68.359 99.1185 69.0053 99.3961 70.1771 99.8991C71.1269 100.305 72.0521 101.537 72.4271 102.892C72.6047 103.532 72.8039 104.746 72.1518 105.692C66.6463 113.665 58.6236 113.563 52.8621 112.071ZM93.76 151.436C84.1998 153.555 80.8148 148.509 78.5842 142.742C77.1445 139.018 76.4367 122.226 76.9389 103.683C76.9453 103.436 76.9113 103.198 76.8457 102.974C76.787 102.531 76.6977 102.093 76.5785 101.663C75.832 98.9652 74.0127 96.7082 71.8301 95.7725C70.9629 95.4009 69.3715 94.7191 67.459 95.2252C67.8668 93.487 68.574 91.524 69.341 89.3985L69.6627 88.5046C70.0248 87.4967 70.4795 86.4524 70.96 85.347C73.5574 79.3785 77.1146 71.2034 73.2539 52.7349C71.8078 45.8173 66.9785 42.4391 59.6578 43.224C55.2691 43.6937 51.2537 45.5252 49.251 46.5755C48.8203 46.8009 48.4266 47.0191 48.0586 47.2312C48.6176 40.2615 50.7293 27.2361 58.6289 18.9949C63.6029 13.807 70.227 11.2446 78.2977 11.3827C94.2 11.6518 104.398 20.0931 110.153 27.1276C115.112 33.1888 117.797 39.2949 118.869 42.5882C110.81 41.7403 105.328 43.3858 102.55 47.4949C96.5045 56.4331 105.857 73.7809 110.351 82.1185C111.176 83.6464 111.887 84.967 112.111 85.5282C113.575 89.1973 115.47 91.647 116.853 93.4349C117.277 93.9827 117.688 94.5143 118.001 94.9785C115.56 95.7064 111.176 97.3882 111.575 105.795C111.253 110.013 108.962 129.762 107.797 136.74C106.26 145.958 102.981 149.391 93.76 151.437V151.436ZM133.665 104.202C131.169 105.4 126.991 106.299 123.023 106.492C118.641 106.705 116.409 105.985 115.884 105.542C115.638 100.303 117.523 99.7555 119.518 99.1761C119.832 99.0852 120.138 98.9961 120.433 98.8894C120.616 99.044 120.817 99.1973 121.038 99.3476C124.56 101.752 130.843 102.012 139.714 100.118L139.811 100.098C138.615 101.255 136.567 102.808 133.665 104.202Z" fill="white"/>
  </g>
  <defs>
    <clipPath id="clip0_97_474">
      <rect width="150" height="160" fill="white" transform="translate(0 0.74707)"/>
    </clipPath>
  </defs>
</svg>