<svg xmlns="http://www.w3.org/2000/svg" width="150" height="151" viewBox="0 0 150 151" fill="none">
  <g clip-path="url(#clip0_97_446)">
    <path d="M125.062 50.5818V104.617L76.2356 131.783L75.7941 132.16V152.356L76.2356 152.747L145 115.395V40.0995L144.35 39.95L124.964 50.1422L125.062 50.5818Z" fill="#2F406A"/>
    <path d="M27.2526 105.06L76.2356 131.783V152.747L7 115.247V40.2471L7.71048 40.1462L27.0407 50.7147L27.2526 51.3199V105.06Z" fill="#2379BD"/>
    <path d="M27.2526 51.3199L7 40.2471L76.0787 2.74707L145 40.0996L125.062 50.5818L76.0787 24.3022L27.2526 51.3199Z" fill="#03AFEF"/>
    <path d="M75.3952 98.8801L74.8647 98.3711V78.0808L75.3952 77.8233L75.524 77.323L94.0219 67.1758L94.5879 67.2949V88.2016L75.3952 98.8801Z" fill="#2F406A"/>
    <path d="M55.8823 88.8529V67.1447L56.4186 67.1199L75.2351 77.4176L75.3952 77.8232V98.8799L55.8823 88.8529Z" fill="#2379BD"/>
    <path d="M75.075 56.4658L55.8823 67.1448L75.3952 77.8232L94.588 67.2948L75.075 56.4658Z" fill="#03AFEF"/>
    <path d="M51.5104 112.116L50.9805 111.607V91.3162L51.5104 91.0591L51.6398 90.5588L70.1372 80.4116L70.7032 80.5307V101.437L51.5104 112.116Z" fill="#2F406A"/>
    <path d="M31.9979 102.089V80.3801L32.5338 80.3552L51.3503 90.6535L51.5104 91.059V112.116L31.9979 102.089Z" fill="#2379BD"/>
    <path d="M51.1907 69.7017L31.9979 80.3801L51.5104 91.0591L70.7032 80.5307L51.1907 69.7017Z" fill="#03AFEF"/>
    <path d="M100.986 112.617L100.455 112.108V91.8174L100.986 91.5604L101.115 91.06L119.612 80.9128L120.178 81.032V101.938L100.986 112.617Z" fill="#2F406A"/>
    <path d="M81.4726 102.59V80.8813L82.0089 80.8564L100.825 91.1547L100.986 91.5602V112.617L81.4726 102.59Z" fill="#2379BD"/>
    <path d="M100.665 70.2031L81.4726 80.8816L100.986 91.5605L120.178 81.0321L100.665 70.2031Z" fill="#03AFEF"/>
    <path d="M77.1006 125.853L76.5707 125.344V105.053L77.1006 104.796L77.23 104.296L95.7279 94.1489L96.2934 94.2681V115.174L77.1006 125.853Z" fill="#2F406A"/>
    <path d="M57.5883 115.826V94.1171L58.1241 94.0923L76.9411 104.39L77.1007 104.796V125.853L57.5883 115.826Z" fill="#2379BD"/>
    <path d="M76.781 83.4385L57.5883 94.1174L77.1007 104.796L96.2935 94.268L76.781 83.4385Z" fill="#03AFEF"/>
    <path d="M75.3952 70.1027L74.8647 69.5933V49.303L75.3952 49.046L75.524 48.5451L94.0219 38.3984L94.5879 38.5176V59.4238L75.3952 70.1027Z" fill="#2F406A"/>
    <path d="M55.8823 60.0756V38.3669L56.4186 38.342L75.2351 48.6398L75.3952 49.0458V70.1026L55.8823 60.0756Z" fill="#2379BD"/>
    <path d="M75.075 27.688L55.8823 38.3669L75.3952 49.0459L94.588 38.5175L75.075 27.688Z" fill="#03AFEF"/>
    <path d="M51.5104 83.3381L50.9805 82.8291V62.5388L51.5104 62.2813L51.6398 61.781L70.1372 51.6338L70.7032 51.7529V72.6596L51.5104 83.3381Z" fill="#2F406A"/>
    <path d="M31.9979 73.3111V51.603L32.5338 51.5781L51.3503 61.8759L51.5104 62.2814V83.3382L31.9979 73.3111Z" fill="#2379BD"/>
    <path d="M51.1907 40.9238L31.9979 51.6028L51.5104 62.2812L70.7032 51.7528L51.1907 40.9238Z" fill="#03AFEF"/>
    <path d="M100.986 83.8393L100.455 83.3303V63.04L100.986 62.7825L101.115 62.2822L119.612 52.135L120.178 52.2541V73.1609L100.986 83.8393Z" fill="#2F406A"/>
    <path d="M81.4726 73.8124V52.1042L82.0089 52.0793L100.825 62.3771L100.986 62.7826V83.8394L81.4726 73.8124Z" fill="#2379BD"/>
    <path d="M100.665 41.4253L81.4726 52.1042L100.986 62.7827L120.178 52.2543L100.665 41.4253Z" fill="#03AFEF"/>
    <path d="M77.1006 97.0754L76.5707 96.5664V76.2756L77.1006 76.0186L77.23 75.5183L95.7279 65.3711L96.2934 65.4902V86.3964L77.1006 97.0754Z" fill="#2F406A"/>
    <path d="M57.5883 87.0482V65.3395L58.1241 65.3147L76.9411 75.6129L77.1007 76.0185V97.0753L57.5883 87.0482Z" fill="#2379BD"/>
    <path d="M76.781 54.6606L57.5883 65.3396L77.1007 76.0185L96.2935 65.4902L76.781 54.6606Z" fill="#03AFEF"/>
  </g>
  <defs>
    <clipPath id="clip0_97_446">
      <rect width="150" height="150" fill="white" transform="translate(0 0.74707)"/>
    </clipPath>
  </defs>
</svg>